<mxfile host="Electron" modified="2023-09-18T10:34:21.326Z" agent="Mozilla/5.0 (Windows NT 10.0; Win64; x64) AppleWebKit/537.36 (KHTML, like Gecko) draw.io/21.6.8 Chrome/114.0.5735.289 Electron/25.5.0 Safari/537.36" etag="w_iqEu-Gc0nUCJElzcO6" version="21.6.8" type="device">
  <diagram name="Page-1" id="Wr0r2EBo4C4Ygi9Os0A0">
    <mxGraphModel dx="1750" dy="1035" grid="1" gridSize="10" guides="1" tooltips="1" connect="1" arrows="1" fold="1" page="1" pageScale="1" pageWidth="850" pageHeight="1100" math="1" shadow="0">
      <root>
        <mxCell id="0" />
        <mxCell id="1" parent="0" />
        <mxCell id="jMzvuTsgaw_Ed3QbutOL-3" value="" style="rounded=0;whiteSpace=wrap;html=1;dashed=1;" vertex="1" parent="1">
          <mxGeometry x="280" y="1190" width="120" height="150" as="geometry" />
        </mxCell>
        <mxCell id="pMtGcip-29Qpyfscyprj-67" value="" style="rounded=1;whiteSpace=wrap;html=1;fillColor=#f6f5ff;dashed=1;strokeWidth=2;" parent="1" vertex="1">
          <mxGeometry x="320" y="950.5" width="420" height="119.5" as="geometry" />
        </mxCell>
        <mxCell id="pMtGcip-29Qpyfscyprj-65" value="" style="rounded=1;whiteSpace=wrap;html=1;dashed=1;fillColor=#FFF5F5;strokeWidth=2;" parent="1" vertex="1">
          <mxGeometry x="355" y="807" width="345" height="110" as="geometry" />
        </mxCell>
        <mxCell id="pMtGcip-29Qpyfscyprj-60" value="" style="endArrow=none;html=1;rounded=0;strokeColor=#FF8000;strokeWidth=2;" parent="1" edge="1">
          <mxGeometry width="50" height="50" relative="1" as="geometry">
            <mxPoint x="700" y="1010" as="sourcePoint" />
            <mxPoint x="750" y="1010" as="targetPoint" />
          </mxGeometry>
        </mxCell>
        <mxCell id="Fxb_3jumzyNVQLf33XB0-2" value="" style="shape=dataStorage;whiteSpace=wrap;html=1;fixedSize=1;rotation=-55;fillColor=#b0e3e6;strokeColor=#0e8088;" parent="1" vertex="1">
          <mxGeometry x="260" y="310" width="90" height="60" as="geometry" />
        </mxCell>
        <mxCell id="Fxb_3jumzyNVQLf33XB0-5" value="" style="endArrow=none;html=1;rounded=0;exitX=0.25;exitY=1;exitDx=0;exitDy=0;entryX=0.786;entryY=0.503;entryDx=0;entryDy=0;entryPerimeter=0;endFill=0;" parent="1" source="Fxb_3jumzyNVQLf33XB0-1" target="Fxb_3jumzyNVQLf33XB0-2" edge="1">
          <mxGeometry width="50" height="50" relative="1" as="geometry">
            <mxPoint x="310" y="340" as="sourcePoint" />
            <mxPoint x="330" y="310" as="targetPoint" />
          </mxGeometry>
        </mxCell>
        <mxCell id="Fxb_3jumzyNVQLf33XB0-6" value="PCA" style="text;html=1;strokeColor=none;fillColor=none;align=center;verticalAlign=middle;whiteSpace=wrap;rounded=0;rotation=-55;" parent="1" vertex="1">
          <mxGeometry x="273" y="327" width="60" height="30" as="geometry" />
        </mxCell>
        <mxCell id="Fxb_3jumzyNVQLf33XB0-41" style="edgeStyle=orthogonalEdgeStyle;rounded=0;orthogonalLoop=1;jettySize=auto;html=1;entryX=1;entryY=0.5;entryDx=0;entryDy=0;exitX=0.875;exitY=0.5;exitDx=0;exitDy=0;exitPerimeter=0;curved=1;fillColor=#a20025;strokeColor=#FF3333;strokeWidth=3;" parent="1" source="Fxb_3jumzyNVQLf33XB0-7" target="Fxb_3jumzyNVQLf33XB0-16" edge="1">
          <mxGeometry relative="1" as="geometry">
            <Array as="points">
              <mxPoint x="670" y="610" />
              <mxPoint x="670" y="340" />
            </Array>
          </mxGeometry>
        </mxCell>
        <mxCell id="Fxb_3jumzyNVQLf33XB0-7" value="&lt;font style=&quot;font-size: 13px;&quot;&gt;Synthetic Data&lt;/font&gt;" style="ellipse;shape=cloud;whiteSpace=wrap;html=1;fillColor=#D0CEE2;strokeColor=#56517E;" parent="1" vertex="1">
          <mxGeometry x="450" y="550" width="165" height="120" as="geometry" />
        </mxCell>
        <mxCell id="Fxb_3jumzyNVQLf33XB0-8" value="&lt;svg style=&quot;vertical-align: -0.566ex;&quot; xmlns:xlink=&quot;http://www.w3.org/1999/xlink&quot; viewBox=&quot;0 -750 4830 1000&quot; role=&quot;img&quot; height=&quot;2.262ex&quot; width=&quot;10.928ex&quot; xmlns=&quot;http://www.w3.org/2000/svg&quot;&gt;&lt;defs&gt;&lt;path d=&quot;M287 628Q287 635 230 637Q206 637 199 638T192 648Q192 649 194 659Q200 679 203 681T397 683Q587 682 600 680Q664 669 707 631T751 530Q751 453 685 389Q616 321 507 303Q500 302 402 301H307L277 182Q247 66 247 59Q247 55 248 54T255 50T272 48T305 46H336Q342 37 342 35Q342 19 335 5Q330 0 319 0Q316 0 282 1T182 2Q120 2 87 2T51 1Q33 1 33 11Q33 13 36 25Q40 41 44 43T67 46Q94 46 127 49Q141 52 146 61Q149 65 218 339T287 628ZM645 554Q645 567 643 575T634 597T609 619T560 635Q553 636 480 637Q463 637 445 637T416 636T404 636Q391 635 386 627Q384 621 367 550T332 412T314 344Q314 342 395 342H407H430Q542 342 590 392Q617 419 631 471T645 554Z&quot; id=&quot;MJX-2-TEX-I-1D443&quot;&gt;&lt;/path&gt;&lt;path d=&quot;M39 168Q39 225 58 272T107 350T174 402T244 433T307 442H310Q355 442 388 420T421 355Q421 265 310 237Q261 224 176 223Q139 223 138 221Q138 219 132 186T125 128Q125 81 146 54T209 26T302 45T394 111Q403 121 406 121Q410 121 419 112T429 98T420 82T390 55T344 24T281 -1T205 -11Q126 -11 83 42T39 168ZM373 353Q367 405 305 405Q272 405 244 391T199 357T170 316T154 280T149 261Q149 260 169 260Q282 260 327 284T373 353Z&quot; id=&quot;MJX-2-TEX-I-1D452&quot;&gt;&lt;/path&gt;&lt;path d=&quot;M21 287Q22 290 23 295T28 317T38 348T53 381T73 411T99 433T132 442Q161 442 183 430T214 408T225 388Q227 382 228 382T236 389Q284 441 347 441H350Q398 441 422 400Q430 381 430 363Q430 333 417 315T391 292T366 288Q346 288 334 299T322 328Q322 376 378 392Q356 405 342 405Q286 405 239 331Q229 315 224 298T190 165Q156 25 151 16Q138 -11 108 -11Q95 -11 87 -5T76 7T74 17Q74 30 114 189T154 366Q154 405 128 405Q107 405 92 377T68 316T57 280Q55 278 41 278H27Q21 284 21 287Z&quot; id=&quot;MJX-2-TEX-I-1D45F&quot;&gt;&lt;/path&gt;&lt;path d=&quot;M26 385Q19 392 19 395Q19 399 22 411T27 425Q29 430 36 430T87 431H140L159 511Q162 522 166 540T173 566T179 586T187 603T197 615T211 624T229 626Q247 625 254 615T261 596Q261 589 252 549T232 470L222 433Q222 431 272 431H323Q330 424 330 420Q330 398 317 385H210L174 240Q135 80 135 68Q135 26 162 26Q197 26 230 60T283 144Q285 150 288 151T303 153H307Q322 153 322 145Q322 142 319 133Q314 117 301 95T267 48T216 6T155 -11Q125 -11 98 4T59 56Q57 64 57 83V101L92 241Q127 382 128 383Q128 385 77 385H26Z&quot; id=&quot;MJX-2-TEX-I-1D461&quot;&gt;&lt;/path&gt;&lt;path d=&quot;M21 287Q21 295 30 318T55 370T99 420T158 442Q204 442 227 417T250 358Q250 340 216 246T182 105Q182 62 196 45T238 27T291 44T328 78L339 95Q341 99 377 247Q407 367 413 387T427 416Q444 431 463 431Q480 431 488 421T496 402L420 84Q419 79 419 68Q419 43 426 35T447 26Q469 29 482 57T512 145Q514 153 532 153Q551 153 551 144Q550 139 549 130T540 98T523 55T498 17T462 -8Q454 -10 438 -10Q372 -10 347 46Q345 45 336 36T318 21T296 6T267 -6T233 -11Q189 -11 155 7Q103 38 103 113Q103 170 138 262T173 379Q173 380 173 381Q173 390 173 393T169 400T158 404H154Q131 404 112 385T82 344T65 302T57 280Q55 278 41 278H27Q21 284 21 287Z&quot; id=&quot;MJX-2-TEX-I-1D462&quot;&gt;&lt;/path&gt;&lt;path d=&quot;M73 647Q73 657 77 670T89 683Q90 683 161 688T234 694Q246 694 246 685T212 542Q204 508 195 472T180 418L176 399Q176 396 182 402Q231 442 283 442Q345 442 383 396T422 280Q422 169 343 79T173 -11Q123 -11 82 27T40 150V159Q40 180 48 217T97 414Q147 611 147 623T109 637Q104 637 101 637H96Q86 637 83 637T76 640T73 647ZM336 325V331Q336 405 275 405Q258 405 240 397T207 376T181 352T163 330L157 322L136 236Q114 150 114 114Q114 66 138 42Q154 26 178 26Q211 26 245 58Q270 81 285 114T318 219Q336 291 336 325Z&quot; id=&quot;MJX-2-TEX-I-1D44F&quot;&gt;&lt;/path&gt;&lt;path d=&quot;M94 250Q94 319 104 381T127 488T164 576T202 643T244 695T277 729T302 750H315H319Q333 750 333 741Q333 738 316 720T275 667T226 581T184 443T167 250T184 58T225 -81T274 -167T316 -220T333 -241Q333 -250 318 -250H315H302L274 -226Q180 -141 137 -14T94 250Z&quot; id=&quot;MJX-2-TEX-N-28&quot;&gt;&lt;/path&gt;&lt;path d=&quot;M184 -11Q116 -11 74 34T31 147Q31 247 104 333T274 430Q275 431 414 431H552Q553 430 555 429T559 427T562 425T565 422T567 420T569 416T570 412T571 407T572 401Q572 357 507 357Q500 357 490 357T476 358H416L421 348Q439 310 439 263Q439 153 359 71T184 -11ZM361 278Q361 358 276 358Q152 358 115 184Q114 180 114 178Q106 141 106 117Q106 67 131 47T188 26Q242 26 287 73Q316 103 334 153T356 233T361 278Z&quot; id=&quot;MJX-2-TEX-I-1D70E&quot;&gt;&lt;/path&gt;&lt;path d=&quot;M60 749L64 750Q69 750 74 750H86L114 726Q208 641 251 514T294 250Q294 182 284 119T261 12T224 -76T186 -143T145 -194T113 -227T90 -246Q87 -249 86 -250H74Q66 -250 63 -250T58 -247T55 -238Q56 -237 66 -225Q221 -64 221 250T66 725Q56 737 55 738Q55 746 60 749Z&quot; id=&quot;MJX-2-TEX-N-29&quot;&gt;&lt;/path&gt;&lt;/defs&gt;&lt;g transform=&quot;scale(1,-1)&quot; stroke-width=&quot;0&quot; fill=&quot;currentColor&quot; stroke=&quot;currentColor&quot;&gt;&lt;g data-mml-node=&quot;math&quot;&gt;&lt;g data-mml-node=&quot;mi&quot;&gt;&lt;use xlink:href=&quot;#MJX-2-TEX-I-1D443&quot; data-c=&quot;1D443&quot;&gt;&lt;/use&gt;&lt;/g&gt;&lt;g transform=&quot;translate(751,0)&quot; data-mml-node=&quot;mi&quot;&gt;&lt;use xlink:href=&quot;#MJX-2-TEX-I-1D452&quot; data-c=&quot;1D452&quot;&gt;&lt;/use&gt;&lt;/g&gt;&lt;g transform=&quot;translate(1217,0)&quot; data-mml-node=&quot;mi&quot;&gt;&lt;use xlink:href=&quot;#MJX-2-TEX-I-1D45F&quot; data-c=&quot;1D45F&quot;&gt;&lt;/use&gt;&lt;/g&gt;&lt;g transform=&quot;translate(1668,0)&quot; data-mml-node=&quot;mi&quot;&gt;&lt;use xlink:href=&quot;#MJX-2-TEX-I-1D461&quot; data-c=&quot;1D461&quot;&gt;&lt;/use&gt;&lt;/g&gt;&lt;g transform=&quot;translate(2029,0)&quot; data-mml-node=&quot;mi&quot;&gt;&lt;use xlink:href=&quot;#MJX-2-TEX-I-1D462&quot; data-c=&quot;1D462&quot;&gt;&lt;/use&gt;&lt;/g&gt;&lt;g transform=&quot;translate(2601,0)&quot; data-mml-node=&quot;mi&quot;&gt;&lt;use xlink:href=&quot;#MJX-2-TEX-I-1D45F&quot; data-c=&quot;1D45F&quot;&gt;&lt;/use&gt;&lt;/g&gt;&lt;g transform=&quot;translate(3052,0)&quot; data-mml-node=&quot;mi&quot;&gt;&lt;use xlink:href=&quot;#MJX-2-TEX-I-1D44F&quot; data-c=&quot;1D44F&quot;&gt;&lt;/use&gt;&lt;/g&gt;&lt;g transform=&quot;translate(3481,0)&quot; data-mml-node=&quot;mo&quot;&gt;&lt;use xlink:href=&quot;#MJX-2-TEX-N-28&quot; data-c=&quot;28&quot;&gt;&lt;/use&gt;&lt;/g&gt;&lt;g transform=&quot;translate(3870,0)&quot; data-mml-node=&quot;mi&quot;&gt;&lt;use xlink:href=&quot;#MJX-2-TEX-I-1D70E&quot; data-c=&quot;1D70E&quot;&gt;&lt;/use&gt;&lt;/g&gt;&lt;g transform=&quot;translate(4441,0)&quot; data-mml-node=&quot;mo&quot;&gt;&lt;use xlink:href=&quot;#MJX-2-TEX-N-29&quot; data-c=&quot;29&quot;&gt;&lt;/use&gt;&lt;/g&gt;&lt;/g&gt;&lt;/g&gt;&lt;/svg&gt;" style="shape=tape;whiteSpace=wrap;html=1;strokeWidth=1;size=0.19;fontSize=12;fillColor=#D0CEE2;strokeColor=#56517E;" parent="1" vertex="1">
          <mxGeometry x="220" y="460" width="100" height="65" as="geometry" />
        </mxCell>
        <mxCell id="Fxb_3jumzyNVQLf33XB0-11" value="" style="curved=1;endArrow=none;html=1;rounded=0;exitX=0;exitY=0.5;exitDx=0;exitDy=0;entryX=0.492;entryY=0.093;entryDx=0;entryDy=0;entryPerimeter=0;endFill=0;" parent="1" source="Fxb_3jumzyNVQLf33XB0-2" target="Fxb_3jumzyNVQLf33XB0-8" edge="1">
          <mxGeometry width="50" height="50" relative="1" as="geometry">
            <mxPoint x="340" y="530" as="sourcePoint" />
            <mxPoint x="390" y="480" as="targetPoint" />
            <Array as="points">
              <mxPoint x="250" y="430" />
            </Array>
          </mxGeometry>
        </mxCell>
        <mxCell id="Fxb_3jumzyNVQLf33XB0-12" value="" style="curved=1;endArrow=classic;html=1;rounded=0;exitX=0.539;exitY=0.873;exitDx=0;exitDy=0;exitPerimeter=0;entryX=0.07;entryY=0.4;entryDx=0;entryDy=0;entryPerimeter=0;" parent="1" source="Fxb_3jumzyNVQLf33XB0-8" target="Fxb_3jumzyNVQLf33XB0-7" edge="1">
          <mxGeometry width="50" height="50" relative="1" as="geometry">
            <mxPoint x="160" y="590" as="sourcePoint" />
            <mxPoint x="210" y="540" as="targetPoint" />
            <Array as="points">
              <mxPoint x="260" y="570" />
              <mxPoint x="300" y="610" />
            </Array>
          </mxGeometry>
        </mxCell>
        <mxCell id="Fxb_3jumzyNVQLf33XB0-19" style="edgeStyle=orthogonalEdgeStyle;rounded=0;orthogonalLoop=1;jettySize=auto;html=1;exitX=1;exitY=0.5;exitDx=0;exitDy=0;entryX=0.788;entryY=0.5;entryDx=0;entryDy=0;entryPerimeter=0;endArrow=none;endFill=0;" parent="1" source="Fxb_3jumzyNVQLf33XB0-13" target="Fxb_3jumzyNVQLf33XB0-17" edge="1">
          <mxGeometry relative="1" as="geometry" />
        </mxCell>
        <mxCell id="Fxb_3jumzyNVQLf33XB0-13" value="&lt;font style=&quot;font-size: 13px;&quot;&gt;Dimensionality Reduction&lt;/font&gt;" style="rounded=0;whiteSpace=wrap;html=1;fillColor=#fad9d5;strokeColor=#ae4132;" parent="1" vertex="1">
          <mxGeometry x="350" y="430" width="120" height="60" as="geometry" />
        </mxCell>
        <mxCell id="Fxb_3jumzyNVQLf33XB0-14" value="" style="curved=1;endArrow=classic;html=1;rounded=0;entryX=0;entryY=0.5;entryDx=0;entryDy=0;" parent="1" target="Fxb_3jumzyNVQLf33XB0-13" edge="1">
          <mxGeometry width="50" height="50" relative="1" as="geometry">
            <mxPoint x="266" y="408" as="sourcePoint" />
            <mxPoint x="386" y="448" as="targetPoint" />
            <Array as="points">
              <mxPoint x="280" y="440" />
            </Array>
          </mxGeometry>
        </mxCell>
        <mxCell id="Fxb_3jumzyNVQLf33XB0-16" value="&lt;font style=&quot;font-size: 13px;&quot;&gt;Model&lt;/font&gt;" style="shape=hexagon;perimeter=hexagonPerimeter2;whiteSpace=wrap;html=1;fixedSize=1;fillColor=#fff2cc;strokeColor=#d6b656;" parent="1" vertex="1">
          <mxGeometry x="508" y="300" width="120" height="80" as="geometry" />
        </mxCell>
        <mxCell id="Fxb_3jumzyNVQLf33XB0-22" value="" style="curved=1;endArrow=classic;html=1;rounded=0;entryX=0.5;entryY=1;entryDx=0;entryDy=0;exitX=0;exitY=0.5;exitDx=0;exitDy=0;fillColor=#a20025;strokeColor=#FF0000;strokeWidth=3;" parent="1" source="Fxb_3jumzyNVQLf33XB0-17" target="Fxb_3jumzyNVQLf33XB0-16" edge="1">
          <mxGeometry width="50" height="50" relative="1" as="geometry">
            <mxPoint x="600" y="420" as="sourcePoint" />
            <mxPoint x="650" y="370" as="targetPoint" />
            <Array as="points">
              <mxPoint x="620" y="420" />
            </Array>
          </mxGeometry>
        </mxCell>
        <mxCell id="Fxb_3jumzyNVQLf33XB0-23" value="" style="group" parent="1" vertex="1" connectable="0">
          <mxGeometry x="500" y="430" width="100" height="60" as="geometry" />
        </mxCell>
        <mxCell id="Fxb_3jumzyNVQLf33XB0-17" value="" style="shape=dataStorage;whiteSpace=wrap;html=1;fixedSize=1;direction=west;fillColor=#f8cecc;strokeColor=#b85450;" parent="Fxb_3jumzyNVQLf33XB0-23" vertex="1">
          <mxGeometry width="100" height="60" as="geometry" />
        </mxCell>
        <mxCell id="Fxb_3jumzyNVQLf33XB0-18" value="&lt;font style=&quot;font-size: 13px;&quot;&gt;$$8\rightarrow 32$$ Mapping&lt;/font&gt;" style="text;html=1;strokeColor=none;fillColor=none;align=center;verticalAlign=middle;whiteSpace=wrap;rounded=0;" parent="Fxb_3jumzyNVQLf33XB0-23" vertex="1">
          <mxGeometry x="20" y="4" width="70" height="40" as="geometry" />
        </mxCell>
        <mxCell id="Fxb_3jumzyNVQLf33XB0-1" value="&lt;font style=&quot;font-size: 12px;&quot;&gt;Data with Labels&lt;/font&gt;" style="rounded=1;whiteSpace=wrap;html=1;fillColor=#d5e8d4;strokeColor=#82b366;" parent="1" vertex="1">
          <mxGeometry x="341.28" y="190" width="120" height="50" as="geometry" />
        </mxCell>
        <mxCell id="Fxb_3jumzyNVQLf33XB0-39" value="" style="group;rotation=15;" parent="1" vertex="1" connectable="0">
          <mxGeometry x="303.939137332471" y="558.0812729562019" width="112.12172533505804" height="83.83745408759614" as="geometry" />
        </mxCell>
        <mxCell id="Fxb_3jumzyNVQLf33XB0-35" value="" style="shape=dataStorage;whiteSpace=wrap;html=1;fixedSize=1;direction=west;rotation=0;fillColor=#D0CEE2;strokeColor=#56517E;" parent="Fxb_3jumzyNVQLf33XB0-39" vertex="1">
          <mxGeometry x="6" y="12" width="100" height="60" as="geometry" />
        </mxCell>
        <mxCell id="Fxb_3jumzyNVQLf33XB0-36" value="invPCA" style="text;html=1;strokeColor=none;fillColor=none;align=center;verticalAlign=middle;whiteSpace=wrap;rounded=0;rotation=0;container=0;" parent="Fxb_3jumzyNVQLf33XB0-39" vertex="1">
          <mxGeometry x="29" y="22" width="70" height="40" as="geometry" />
        </mxCell>
        <mxCell id="Fxb_3jumzyNVQLf33XB0-42" value="" style="endArrow=classic;html=1;rounded=0;exitX=0.939;exitY=1.016;exitDx=0;exitDy=0;exitPerimeter=0;entryX=0;entryY=0.25;entryDx=0;entryDy=0;endWidth=13.333333333333334;shadow=0;fillColor=#0050ef;strokeColor=#001DBC;strokeWidth=3;" parent="1" source="Fxb_3jumzyNVQLf33XB0-1" target="Fxb_3jumzyNVQLf33XB0-16" edge="1">
          <mxGeometry width="50" height="50" relative="1" as="geometry">
            <mxPoint x="310" y="400" as="sourcePoint" />
            <mxPoint x="360" y="350" as="targetPoint" />
          </mxGeometry>
        </mxCell>
        <mxCell id="Fxb_3jumzyNVQLf33XB0-43" value="$$32\rightarrow 8$$" style="text;html=1;strokeColor=none;fillColor=none;align=center;verticalAlign=middle;whiteSpace=wrap;rounded=0;" parent="1" vertex="1">
          <mxGeometry x="379" y="401" width="60" height="30" as="geometry" />
        </mxCell>
        <mxCell id="Fxb_3jumzyNVQLf33XB0-44" value="" style="endArrow=classic;html=1;rounded=0;strokeWidth=3;strokeColor=#001dbc;" parent="1" edge="1">
          <mxGeometry width="50" height="50" relative="1" as="geometry">
            <mxPoint x="580" y="200" as="sourcePoint" />
            <mxPoint x="630" y="200" as="targetPoint" />
          </mxGeometry>
        </mxCell>
        <mxCell id="Fxb_3jumzyNVQLf33XB0-45" value="" style="endArrow=classic;html=1;rounded=0;strokeWidth=3;strokeColor=#ff3333;" parent="1" edge="1">
          <mxGeometry width="50" height="50" relative="1" as="geometry">
            <mxPoint x="580" y="230" as="sourcePoint" />
            <mxPoint x="630" y="230" as="targetPoint" />
          </mxGeometry>
        </mxCell>
        <mxCell id="Fxb_3jumzyNVQLf33XB0-46" value="&lt;font style=&quot;font-size: 13px;&quot;&gt;Training Phase&lt;/font&gt;" style="text;html=1;strokeColor=none;fillColor=none;align=center;verticalAlign=middle;whiteSpace=wrap;rounded=0;" parent="1" vertex="1">
          <mxGeometry x="636" y="184" width="100" height="30" as="geometry" />
        </mxCell>
        <mxCell id="Fxb_3jumzyNVQLf33XB0-47" value="&lt;font style=&quot;font-size: 13px;&quot;&gt;Test Validation&lt;/font&gt;" style="text;html=1;strokeColor=none;fillColor=none;align=center;verticalAlign=middle;whiteSpace=wrap;rounded=0;" parent="1" vertex="1">
          <mxGeometry x="636" y="214" width="100" height="30" as="geometry" />
        </mxCell>
        <mxCell id="pMtGcip-29Qpyfscyprj-32" style="edgeStyle=orthogonalEdgeStyle;rounded=0;orthogonalLoop=1;jettySize=auto;html=1;exitX=1;exitY=0.5;exitDx=0;exitDy=0;entryX=0.73;entryY=0.5;entryDx=0;entryDy=0;entryPerimeter=0;endArrow=none;endFill=0;" parent="1" source="pMtGcip-29Qpyfscyprj-17" target="pMtGcip-29Qpyfscyprj-30" edge="1">
          <mxGeometry relative="1" as="geometry" />
        </mxCell>
        <mxCell id="pMtGcip-29Qpyfscyprj-68" style="edgeStyle=orthogonalEdgeStyle;rounded=0;orthogonalLoop=1;jettySize=auto;html=1;exitX=0.5;exitY=1;exitDx=0;exitDy=0;strokeColor=#6666FF;entryX=0.5;entryY=1;entryDx=0;entryDy=0;strokeWidth=2;" parent="1" source="pMtGcip-29Qpyfscyprj-17" target="pMtGcip-29Qpyfscyprj-58" edge="1">
          <mxGeometry relative="1" as="geometry">
            <mxPoint x="100" y="1119.9999999999998" as="targetPoint" />
            <Array as="points">
              <mxPoint x="100" y="1120" />
              <mxPoint x="858" y="1120" />
            </Array>
          </mxGeometry>
        </mxCell>
        <mxCell id="pMtGcip-29Qpyfscyprj-17" value="&lt;font style=&quot;font-size: 12px;&quot;&gt;Data with Labels&lt;/font&gt;" style="rounded=1;whiteSpace=wrap;html=1;fillColor=#E8FFF0;strokeColor=#82b366;" parent="1" vertex="1">
          <mxGeometry x="40" y="910" width="120" height="50" as="geometry" />
        </mxCell>
        <mxCell id="pMtGcip-29Qpyfscyprj-41" style="edgeStyle=orthogonalEdgeStyle;rounded=0;orthogonalLoop=1;jettySize=auto;html=1;exitX=0;exitY=0.5;exitDx=0;exitDy=0;endArrow=none;endFill=0;" parent="1" source="pMtGcip-29Qpyfscyprj-30" edge="1">
          <mxGeometry relative="1" as="geometry">
            <mxPoint x="300" y="935" as="targetPoint" />
          </mxGeometry>
        </mxCell>
        <mxCell id="pMtGcip-29Qpyfscyprj-30" value="" style="shape=dataStorage;whiteSpace=wrap;html=1;fixedSize=1;direction=west;size=27;" parent="1" vertex="1">
          <mxGeometry x="190" y="907.5" width="100" height="55" as="geometry" />
        </mxCell>
        <mxCell id="pMtGcip-29Qpyfscyprj-33" value="PCA" style="text;html=1;strokeColor=none;fillColor=none;align=center;verticalAlign=middle;whiteSpace=wrap;rounded=0;" parent="1" vertex="1">
          <mxGeometry x="217" y="920" width="60" height="30" as="geometry" />
        </mxCell>
        <mxCell id="pMtGcip-29Qpyfscyprj-39" value="" style="curved=1;endArrow=none;html=1;rounded=0;endFill=0;" parent="1" edge="1">
          <mxGeometry width="50" height="50" relative="1" as="geometry">
            <mxPoint x="299.28" y="935" as="sourcePoint" />
            <mxPoint x="339.28" y="865" as="targetPoint" />
            <Array as="points">
              <mxPoint x="309.28" y="935" />
              <mxPoint x="309.28" y="865" />
            </Array>
          </mxGeometry>
        </mxCell>
        <mxCell id="pMtGcip-29Qpyfscyprj-42" value="" style="curved=1;endArrow=none;html=1;rounded=0;endFill=0;" parent="1" edge="1">
          <mxGeometry width="50" height="50" relative="1" as="geometry">
            <mxPoint x="297.28" y="935" as="sourcePoint" />
            <mxPoint x="340" y="1010" as="targetPoint" />
            <Array as="points">
              <mxPoint x="310" y="935" />
              <mxPoint x="310" y="1010" />
            </Array>
          </mxGeometry>
        </mxCell>
        <mxCell id="pMtGcip-29Qpyfscyprj-48" style="edgeStyle=orthogonalEdgeStyle;rounded=0;orthogonalLoop=1;jettySize=auto;html=1;exitX=1;exitY=0.5;exitDx=0;exitDy=0;entryX=0.002;entryY=0.647;entryDx=0;entryDy=0;entryPerimeter=0;endArrow=none;endFill=0;" parent="1" source="pMtGcip-29Qpyfscyprj-44" target="pMtGcip-29Qpyfscyprj-47" edge="1">
          <mxGeometry relative="1" as="geometry" />
        </mxCell>
        <mxCell id="pMtGcip-29Qpyfscyprj-44" value="&lt;font style=&quot;font-size: 13px;&quot;&gt;Dimensionality Reduction&lt;/font&gt;" style="rounded=0;whiteSpace=wrap;html=1;fillColor=#fad9d5;strokeColor=#ae4132;" parent="1" vertex="1">
          <mxGeometry x="379" y="834" width="120" height="60" as="geometry" />
        </mxCell>
        <mxCell id="pMtGcip-29Qpyfscyprj-45" value="" style="group" parent="1" vertex="1" connectable="0">
          <mxGeometry x="574.72" y="834" width="100" height="60" as="geometry" />
        </mxCell>
        <mxCell id="pMtGcip-29Qpyfscyprj-61" style="edgeStyle=orthogonalEdgeStyle;rounded=0;orthogonalLoop=1;jettySize=auto;html=1;exitX=0;exitY=0.5;exitDx=0;exitDy=0;endArrow=none;endFill=0;strokeColor=#FF8000;strokeWidth=2;" parent="pMtGcip-29Qpyfscyprj-45" source="pMtGcip-29Qpyfscyprj-46" edge="1">
          <mxGeometry relative="1" as="geometry">
            <mxPoint x="175.27999999999997" y="30" as="targetPoint" />
          </mxGeometry>
        </mxCell>
        <mxCell id="pMtGcip-29Qpyfscyprj-46" value="" style="shape=dataStorage;whiteSpace=wrap;html=1;fixedSize=1;direction=west;fillColor=#f8cecc;strokeColor=#b85450;" parent="pMtGcip-29Qpyfscyprj-45" vertex="1">
          <mxGeometry width="100" height="60" as="geometry" />
        </mxCell>
        <mxCell id="pMtGcip-29Qpyfscyprj-47" value="&lt;font style=&quot;font-size: 13px;&quot;&gt;$$8\rightarrow 32$$ Mapping&lt;/font&gt;" style="text;html=1;strokeColor=none;fillColor=none;align=center;verticalAlign=middle;whiteSpace=wrap;rounded=0;" parent="pMtGcip-29Qpyfscyprj-45" vertex="1">
          <mxGeometry x="20" y="4" width="70" height="40" as="geometry" />
        </mxCell>
        <mxCell id="pMtGcip-29Qpyfscyprj-55" style="edgeStyle=orthogonalEdgeStyle;rounded=0;orthogonalLoop=1;jettySize=auto;html=1;exitX=1;exitY=0.5;exitDx=0;exitDy=0;exitPerimeter=0;entryX=0.75;entryY=0.473;entryDx=0;entryDy=0;entryPerimeter=0;endArrow=none;endFill=0;" parent="1" source="pMtGcip-29Qpyfscyprj-49" target="pMtGcip-29Qpyfscyprj-51" edge="1">
          <mxGeometry relative="1" as="geometry" />
        </mxCell>
        <mxCell id="pMtGcip-29Qpyfscyprj-49" value="&lt;svg style=&quot;vertical-align: -0.566ex;&quot; xmlns:xlink=&quot;http://www.w3.org/1999/xlink&quot; viewBox=&quot;0 -750 4830 1000&quot; role=&quot;img&quot; height=&quot;2.262ex&quot; width=&quot;10.928ex&quot; xmlns=&quot;http://www.w3.org/2000/svg&quot;&gt;&lt;defs&gt;&lt;path d=&quot;M287 628Q287 635 230 637Q206 637 199 638T192 648Q192 649 194 659Q200 679 203 681T397 683Q587 682 600 680Q664 669 707 631T751 530Q751 453 685 389Q616 321 507 303Q500 302 402 301H307L277 182Q247 66 247 59Q247 55 248 54T255 50T272 48T305 46H336Q342 37 342 35Q342 19 335 5Q330 0 319 0Q316 0 282 1T182 2Q120 2 87 2T51 1Q33 1 33 11Q33 13 36 25Q40 41 44 43T67 46Q94 46 127 49Q141 52 146 61Q149 65 218 339T287 628ZM645 554Q645 567 643 575T634 597T609 619T560 635Q553 636 480 637Q463 637 445 637T416 636T404 636Q391 635 386 627Q384 621 367 550T332 412T314 344Q314 342 395 342H407H430Q542 342 590 392Q617 419 631 471T645 554Z&quot; id=&quot;MJX-2-TEX-I-1D443&quot;&gt;&lt;/path&gt;&lt;path d=&quot;M39 168Q39 225 58 272T107 350T174 402T244 433T307 442H310Q355 442 388 420T421 355Q421 265 310 237Q261 224 176 223Q139 223 138 221Q138 219 132 186T125 128Q125 81 146 54T209 26T302 45T394 111Q403 121 406 121Q410 121 419 112T429 98T420 82T390 55T344 24T281 -1T205 -11Q126 -11 83 42T39 168ZM373 353Q367 405 305 405Q272 405 244 391T199 357T170 316T154 280T149 261Q149 260 169 260Q282 260 327 284T373 353Z&quot; id=&quot;MJX-2-TEX-I-1D452&quot;&gt;&lt;/path&gt;&lt;path d=&quot;M21 287Q22 290 23 295T28 317T38 348T53 381T73 411T99 433T132 442Q161 442 183 430T214 408T225 388Q227 382 228 382T236 389Q284 441 347 441H350Q398 441 422 400Q430 381 430 363Q430 333 417 315T391 292T366 288Q346 288 334 299T322 328Q322 376 378 392Q356 405 342 405Q286 405 239 331Q229 315 224 298T190 165Q156 25 151 16Q138 -11 108 -11Q95 -11 87 -5T76 7T74 17Q74 30 114 189T154 366Q154 405 128 405Q107 405 92 377T68 316T57 280Q55 278 41 278H27Q21 284 21 287Z&quot; id=&quot;MJX-2-TEX-I-1D45F&quot;&gt;&lt;/path&gt;&lt;path d=&quot;M26 385Q19 392 19 395Q19 399 22 411T27 425Q29 430 36 430T87 431H140L159 511Q162 522 166 540T173 566T179 586T187 603T197 615T211 624T229 626Q247 625 254 615T261 596Q261 589 252 549T232 470L222 433Q222 431 272 431H323Q330 424 330 420Q330 398 317 385H210L174 240Q135 80 135 68Q135 26 162 26Q197 26 230 60T283 144Q285 150 288 151T303 153H307Q322 153 322 145Q322 142 319 133Q314 117 301 95T267 48T216 6T155 -11Q125 -11 98 4T59 56Q57 64 57 83V101L92 241Q127 382 128 383Q128 385 77 385H26Z&quot; id=&quot;MJX-2-TEX-I-1D461&quot;&gt;&lt;/path&gt;&lt;path d=&quot;M21 287Q21 295 30 318T55 370T99 420T158 442Q204 442 227 417T250 358Q250 340 216 246T182 105Q182 62 196 45T238 27T291 44T328 78L339 95Q341 99 377 247Q407 367 413 387T427 416Q444 431 463 431Q480 431 488 421T496 402L420 84Q419 79 419 68Q419 43 426 35T447 26Q469 29 482 57T512 145Q514 153 532 153Q551 153 551 144Q550 139 549 130T540 98T523 55T498 17T462 -8Q454 -10 438 -10Q372 -10 347 46Q345 45 336 36T318 21T296 6T267 -6T233 -11Q189 -11 155 7Q103 38 103 113Q103 170 138 262T173 379Q173 380 173 381Q173 390 173 393T169 400T158 404H154Q131 404 112 385T82 344T65 302T57 280Q55 278 41 278H27Q21 284 21 287Z&quot; id=&quot;MJX-2-TEX-I-1D462&quot;&gt;&lt;/path&gt;&lt;path d=&quot;M73 647Q73 657 77 670T89 683Q90 683 161 688T234 694Q246 694 246 685T212 542Q204 508 195 472T180 418L176 399Q176 396 182 402Q231 442 283 442Q345 442 383 396T422 280Q422 169 343 79T173 -11Q123 -11 82 27T40 150V159Q40 180 48 217T97 414Q147 611 147 623T109 637Q104 637 101 637H96Q86 637 83 637T76 640T73 647ZM336 325V331Q336 405 275 405Q258 405 240 397T207 376T181 352T163 330L157 322L136 236Q114 150 114 114Q114 66 138 42Q154 26 178 26Q211 26 245 58Q270 81 285 114T318 219Q336 291 336 325Z&quot; id=&quot;MJX-2-TEX-I-1D44F&quot;&gt;&lt;/path&gt;&lt;path d=&quot;M94 250Q94 319 104 381T127 488T164 576T202 643T244 695T277 729T302 750H315H319Q333 750 333 741Q333 738 316 720T275 667T226 581T184 443T167 250T184 58T225 -81T274 -167T316 -220T333 -241Q333 -250 318 -250H315H302L274 -226Q180 -141 137 -14T94 250Z&quot; id=&quot;MJX-2-TEX-N-28&quot;&gt;&lt;/path&gt;&lt;path d=&quot;M184 -11Q116 -11 74 34T31 147Q31 247 104 333T274 430Q275 431 414 431H552Q553 430 555 429T559 427T562 425T565 422T567 420T569 416T570 412T571 407T572 401Q572 357 507 357Q500 357 490 357T476 358H416L421 348Q439 310 439 263Q439 153 359 71T184 -11ZM361 278Q361 358 276 358Q152 358 115 184Q114 180 114 178Q106 141 106 117Q106 67 131 47T188 26Q242 26 287 73Q316 103 334 153T356 233T361 278Z&quot; id=&quot;MJX-2-TEX-I-1D70E&quot;&gt;&lt;/path&gt;&lt;path d=&quot;M60 749L64 750Q69 750 74 750H86L114 726Q208 641 251 514T294 250Q294 182 284 119T261 12T224 -76T186 -143T145 -194T113 -227T90 -246Q87 -249 86 -250H74Q66 -250 63 -250T58 -247T55 -238Q56 -237 66 -225Q221 -64 221 250T66 725Q56 737 55 738Q55 746 60 749Z&quot; id=&quot;MJX-2-TEX-N-29&quot;&gt;&lt;/path&gt;&lt;/defs&gt;&lt;g transform=&quot;scale(1,-1)&quot; stroke-width=&quot;0&quot; fill=&quot;currentColor&quot; stroke=&quot;currentColor&quot;&gt;&lt;g data-mml-node=&quot;math&quot;&gt;&lt;g data-mml-node=&quot;mi&quot;&gt;&lt;use xlink:href=&quot;#MJX-2-TEX-I-1D443&quot; data-c=&quot;1D443&quot;&gt;&lt;/use&gt;&lt;/g&gt;&lt;g transform=&quot;translate(751,0)&quot; data-mml-node=&quot;mi&quot;&gt;&lt;use xlink:href=&quot;#MJX-2-TEX-I-1D452&quot; data-c=&quot;1D452&quot;&gt;&lt;/use&gt;&lt;/g&gt;&lt;g transform=&quot;translate(1217,0)&quot; data-mml-node=&quot;mi&quot;&gt;&lt;use xlink:href=&quot;#MJX-2-TEX-I-1D45F&quot; data-c=&quot;1D45F&quot;&gt;&lt;/use&gt;&lt;/g&gt;&lt;g transform=&quot;translate(1668,0)&quot; data-mml-node=&quot;mi&quot;&gt;&lt;use xlink:href=&quot;#MJX-2-TEX-I-1D461&quot; data-c=&quot;1D461&quot;&gt;&lt;/use&gt;&lt;/g&gt;&lt;g transform=&quot;translate(2029,0)&quot; data-mml-node=&quot;mi&quot;&gt;&lt;use xlink:href=&quot;#MJX-2-TEX-I-1D462&quot; data-c=&quot;1D462&quot;&gt;&lt;/use&gt;&lt;/g&gt;&lt;g transform=&quot;translate(2601,0)&quot; data-mml-node=&quot;mi&quot;&gt;&lt;use xlink:href=&quot;#MJX-2-TEX-I-1D45F&quot; data-c=&quot;1D45F&quot;&gt;&lt;/use&gt;&lt;/g&gt;&lt;g transform=&quot;translate(3052,0)&quot; data-mml-node=&quot;mi&quot;&gt;&lt;use xlink:href=&quot;#MJX-2-TEX-I-1D44F&quot; data-c=&quot;1D44F&quot;&gt;&lt;/use&gt;&lt;/g&gt;&lt;g transform=&quot;translate(3481,0)&quot; data-mml-node=&quot;mo&quot;&gt;&lt;use xlink:href=&quot;#MJX-2-TEX-N-28&quot; data-c=&quot;28&quot;&gt;&lt;/use&gt;&lt;/g&gt;&lt;g transform=&quot;translate(3870,0)&quot; data-mml-node=&quot;mi&quot;&gt;&lt;use xlink:href=&quot;#MJX-2-TEX-I-1D70E&quot; data-c=&quot;1D70E&quot;&gt;&lt;/use&gt;&lt;/g&gt;&lt;g transform=&quot;translate(4441,0)&quot; data-mml-node=&quot;mo&quot;&gt;&lt;use xlink:href=&quot;#MJX-2-TEX-N-29&quot; data-c=&quot;29&quot;&gt;&lt;/use&gt;&lt;/g&gt;&lt;/g&gt;&lt;/g&gt;&lt;/svg&gt;" style="shape=tape;whiteSpace=wrap;html=1;strokeWidth=4;size=0.19;fontSize=12;fillColor=#D0CEE2;strokeColor=#7E3B7C;" parent="1" vertex="1">
          <mxGeometry x="340.28" y="978" width="100" height="65" as="geometry" />
        </mxCell>
        <mxCell id="pMtGcip-29Qpyfscyprj-56" style="edgeStyle=orthogonalEdgeStyle;rounded=0;orthogonalLoop=1;jettySize=auto;html=1;exitX=1;exitY=0.5;exitDx=0;exitDy=0;entryX=0.139;entryY=0.541;entryDx=0;entryDy=0;entryPerimeter=0;endArrow=none;endFill=0;" parent="1" source="pMtGcip-29Qpyfscyprj-50" target="pMtGcip-29Qpyfscyprj-54" edge="1">
          <mxGeometry relative="1" as="geometry" />
        </mxCell>
        <mxCell id="pMtGcip-29Qpyfscyprj-50" value="" style="group;movable=1;resizable=1;rotatable=1;deletable=1;editable=1;locked=0;connectable=1;strokeWidth=7;" parent="1" vertex="1" connectable="0">
          <mxGeometry x="475" y="979" width="100" height="60" as="geometry" />
        </mxCell>
        <mxCell id="pMtGcip-29Qpyfscyprj-51" value="" style="shape=dataStorage;whiteSpace=wrap;html=1;fixedSize=1;direction=west;fillColor=#D0CEE2;strokeColor=#7E3B7C;fontColor=#D0CEE2;strokeWidth=4;" parent="pMtGcip-29Qpyfscyprj-50" vertex="1">
          <mxGeometry width="100" height="60" as="geometry" />
        </mxCell>
        <mxCell id="pMtGcip-29Qpyfscyprj-53" value="invPCA" style="text;html=1;strokeColor=none;fillColor=none;align=center;verticalAlign=middle;whiteSpace=wrap;rounded=0;" parent="1" vertex="1">
          <mxGeometry x="500" y="994" width="60" height="30" as="geometry" />
        </mxCell>
        <mxCell id="pMtGcip-29Qpyfscyprj-54" value="&lt;font style=&quot;font-size: 13px;&quot;&gt;Synthetic Data&lt;/font&gt;" style="ellipse;shape=cloud;whiteSpace=wrap;html=1;fillColor=#D0CEE2;strokeColor=#56517E;" parent="1" vertex="1">
          <mxGeometry x="600" y="960" width="126.5" height="91" as="geometry" />
        </mxCell>
        <mxCell id="pMtGcip-29Qpyfscyprj-57" value="" style="endArrow=none;html=1;rounded=0;" parent="1" edge="1">
          <mxGeometry width="50" height="50" relative="1" as="geometry">
            <mxPoint x="339" y="865" as="sourcePoint" />
            <mxPoint x="379" y="865" as="targetPoint" />
          </mxGeometry>
        </mxCell>
        <mxCell id="pMtGcip-29Qpyfscyprj-58" value="&lt;font style=&quot;font-size: 13px;&quot;&gt;Model&lt;/font&gt;" style="shape=hexagon;perimeter=hexagonPerimeter2;whiteSpace=wrap;html=1;fixedSize=1;fillColor=#fff2cc;strokeColor=#d6b656;" parent="1" vertex="1">
          <mxGeometry x="798" y="890" width="120" height="80" as="geometry" />
        </mxCell>
        <mxCell id="pMtGcip-29Qpyfscyprj-63" value="" style="curved=1;endArrow=classic;html=1;rounded=0;entryX=0;entryY=0.25;entryDx=0;entryDy=0;strokeColor=#FF8000;strokeWidth=2;" parent="1" target="pMtGcip-29Qpyfscyprj-58" edge="1">
          <mxGeometry width="50" height="50" relative="1" as="geometry">
            <mxPoint x="750" y="864" as="sourcePoint" />
            <mxPoint x="806.5714285714287" y="906.8571428571429" as="targetPoint" />
            <Array as="points">
              <mxPoint x="770" y="864" />
              <mxPoint x="780" y="874" />
            </Array>
          </mxGeometry>
        </mxCell>
        <mxCell id="pMtGcip-29Qpyfscyprj-64" value="" style="curved=1;endArrow=classic;html=1;rounded=0;entryX=0;entryY=0.75;entryDx=0;entryDy=0;strokeColor=#FF8000;strokeWidth=2;" parent="1" target="pMtGcip-29Qpyfscyprj-58" edge="1">
          <mxGeometry width="50" height="50" relative="1" as="geometry">
            <mxPoint x="750" y="1010" as="sourcePoint" />
            <mxPoint x="807" y="1059" as="targetPoint" />
            <Array as="points">
              <mxPoint x="770" y="1010" />
              <mxPoint x="780" y="1000" />
            </Array>
          </mxGeometry>
        </mxCell>
        <mxCell id="pMtGcip-29Qpyfscyprj-70" value="" style="endArrow=none;html=1;rounded=0;strokeColor=#FF8000;strokeWidth=2;" parent="1" edge="1">
          <mxGeometry width="50" height="50" relative="1" as="geometry">
            <mxPoint x="740" y="820" as="sourcePoint" />
            <mxPoint x="790" y="820" as="targetPoint" />
          </mxGeometry>
        </mxCell>
        <mxCell id="pMtGcip-29Qpyfscyprj-71" value="" style="endArrow=none;html=1;rounded=0;strokeColor=#6666ff;strokeWidth=2;" parent="1" edge="1">
          <mxGeometry width="50" height="50" relative="1" as="geometry">
            <mxPoint x="740" y="790" as="sourcePoint" />
            <mxPoint x="790" y="790" as="targetPoint" />
          </mxGeometry>
        </mxCell>
        <mxCell id="pMtGcip-29Qpyfscyprj-72" value="Training Phase" style="text;html=1;strokeColor=none;fillColor=none;align=center;verticalAlign=middle;whiteSpace=wrap;rounded=0;" parent="1" vertex="1">
          <mxGeometry x="795" y="775" width="92" height="30" as="geometry" />
        </mxCell>
        <mxCell id="pMtGcip-29Qpyfscyprj-73" value="Test Validation" style="text;html=1;strokeColor=none;fillColor=none;align=center;verticalAlign=middle;whiteSpace=wrap;rounded=0;" parent="1" vertex="1">
          <mxGeometry x="795" y="805" width="92" height="30" as="geometry" />
        </mxCell>
        <mxCell id="jMzvuTsgaw_Ed3QbutOL-1" value="&lt;font style=&quot;font-size: 17px;&quot;&gt;Curated Data&lt;/font&gt;" style="rounded=1;whiteSpace=wrap;html=1;" vertex="1" parent="1">
          <mxGeometry x="290" y="1200" width="100" height="60" as="geometry" />
        </mxCell>
        <mxCell id="jMzvuTsgaw_Ed3QbutOL-2" value="&lt;font style=&quot;font-size: 17px;&quot;&gt;Synthetic Data&lt;/font&gt;" style="rounded=1;whiteSpace=wrap;html=1;" vertex="1" parent="1">
          <mxGeometry x="290" y="1270" width="100" height="60" as="geometry" />
        </mxCell>
        <mxCell id="jMzvuTsgaw_Ed3QbutOL-4" value="" style="endArrow=classic;html=1;rounded=0;exitX=1;exitY=0.5;exitDx=0;exitDy=0;entryX=0;entryY=0.5;entryDx=0;entryDy=0;" edge="1" parent="1" source="jMzvuTsgaw_Ed3QbutOL-3" target="jMzvuTsgaw_Ed3QbutOL-6">
          <mxGeometry width="50" height="50" relative="1" as="geometry">
            <mxPoint x="450" y="1270" as="sourcePoint" />
            <mxPoint x="470" y="1265" as="targetPoint" />
          </mxGeometry>
        </mxCell>
        <mxCell id="jMzvuTsgaw_Ed3QbutOL-5" value="&lt;font style=&quot;font-size: 15px;&quot;&gt;Combined Dataset&lt;/font&gt;" style="text;html=1;strokeColor=none;fillColor=none;align=center;verticalAlign=middle;whiteSpace=wrap;rounded=0;" vertex="1" parent="1">
          <mxGeometry x="270" y="1160" width="140" height="30" as="geometry" />
        </mxCell>
        <mxCell id="jMzvuTsgaw_Ed3QbutOL-6" value="&lt;font style=&quot;font-size: 17px;&quot;&gt;Model&lt;/font&gt;" style="shape=hexagon;perimeter=hexagonPerimeter2;whiteSpace=wrap;html=1;fixedSize=1;" vertex="1" parent="1">
          <mxGeometry x="472.5" y="1225" width="97.5" height="80" as="geometry" />
        </mxCell>
      </root>
    </mxGraphModel>
  </diagram>
</mxfile>
